<svg width="1617" height="1147" xmlns="http://www.w3.org/2000/svg" xmlns:xlink="http://www.w3.org/1999/xlink" overflow="hidden"><defs><clipPath id="clip0"><rect x="1054" y="452" width="1617" height="1147"/></clipPath></defs><g clip-path="url(#clip0)" transform="translate(-1054 -452)"><rect x="1056.5" y="669.5" width="609" height="927" stroke="#2F528F" stroke-width="4.58333" stroke-miterlimit="8" fill="#DEEBF7"/><rect x="1115.5" y="849.5" width="494" height="139" stroke="#2F528F" stroke-width="4.58333" stroke-miterlimit="8" fill="#4472C4"/><text fill="#FFFFFF" font-family="DengXian,DengXian_MSFontService,sans-serif" font-weight="400" font-size="83" transform="matrix(1 0 0 1 1261.24 946)">Client</text><rect x="1115.5" y="1418.5" width="494" height="139" stroke="#2F528F" stroke-width="4.58333" stroke-miterlimit="8" fill="#4472C4"/><text fill="#FFFFFF" font-family="DengXian,DengXian_MSFontService,sans-serif" font-weight="400" font-size="83" transform="matrix(1 0 0 1 1169.28 1515)">Client Stub</text><path d="M1169.5 1276.5 1202 1276.5 1202 1081.5 1267 1081.5 1267 1276.5 1299.5 1276.5 1234.5 1341.5Z" stroke="#2F528F" stroke-width="4.58333" stroke-miterlimit="8" fill="#4472C4" fill-rule="evenodd"/><text fill="#FFFFFF" font-family="DengXian,DengXian_MSFontService,sans-serif" font-weight="400" font-size="55" transform="matrix(1 0 0 1 1206.57 1180)">调<tspan font-size="55" x="0" y="66">用</tspan></text><path d="M1425.5 1138.5 1490.5 1073.5 1555.5 1138.5 1523 1138.5 1523 1333.5 1458 1333.5 1458 1138.5Z" stroke="#2F528F" stroke-width="4.58333" stroke-miterlimit="8" fill="#4472C4" fill-rule="evenodd"/><text fill="#FFFFFF" font-family="DengXian,DengXian_MSFontService,sans-serif" font-weight="400" font-size="55" transform="matrix(1 0 0 1 1462.57 1204)">返<tspan font-size="55" x="0" y="66">回</tspan><tspan fill="#000000" font-family="Microsoft YaHei,Microsoft YaHei_MSFontService,sans-serif" font-size="83" x="-225.744" y="-415">客户端</tspan></text><rect x="2059.5" y="669.5" width="609" height="927" stroke="#FFC000" stroke-width="4.58333" stroke-miterlimit="8" fill="#FFF2CC"/><path d="M2430.5 1276.5 2463 1276.5 2463 1081.5 2528 1081.5 2528 1276.5 2560.5 1276.5 2495.5 1341.5Z" stroke="#FFC000" stroke-width="4.58333" stroke-miterlimit="8" fill="#F4B183" fill-rule="evenodd"/><text font-family="DengXian,DengXian_MSFontService,sans-serif" font-weight="400" font-size="55" transform="matrix(1 0 0 1 2467.96 1180)">返<tspan font-size="55" x="0" y="66">回</tspan></text><rect x="2118.5" y="849.5" width="494" height="139" stroke="#FFC000" stroke-width="4.58333" stroke-miterlimit="8" fill="#F4B183"/><text font-family="DengXian,DengXian_MSFontService,sans-serif" font-weight="400" font-size="83" transform="matrix(1 0 0 1 2254.24 946)">Server</text><rect x="2118.5" y="1418.5" width="494" height="139" stroke="#FFC000" stroke-width="4.58333" stroke-miterlimit="8" fill="#F4B183"/><text font-family="DengXian,DengXian_MSFontService,sans-serif" font-weight="400" font-size="83" transform="matrix(1 0 0 1 2162.28 1515)">Server Stub<tspan font-family="Microsoft YaHei,Microsoft YaHei_MSFontService,sans-serif" font-size="83" x="77.5657" y="-726">服务</tspan><tspan font-family="Microsoft YaHei,Microsoft YaHei_MSFontService,sans-serif" font-size="83" x="242.566" y="-726">端</tspan></text><path d="M2179.5 1138.5 2244.5 1073.5 2309.5 1138.5 2277 1138.5 2277 1333.5 2212 1333.5 2212 1138.5Z" stroke="#FFC000" stroke-width="4.58333" stroke-miterlimit="8" fill="#F4B183" fill-rule="evenodd"/><text font-family="DengXian,DengXian_MSFontService,sans-serif" font-weight="400" font-size="55" transform="matrix(1 0 0 1 2216.45 1204)">调<tspan font-size="55" x="0" y="66">用</tspan></text><path d="M1732.5 1434.5 1960.5 1434.5 1960.5 1418.5 1992.5 1450.5 1960.5 1482.5 1960.5 1466.5 1732.5 1466.5Z" stroke="#507E32" stroke-width="4.58333" stroke-miterlimit="8" fill="#70AD47" fill-rule="evenodd"/><path d="M1732.5 1528 1765 1495.5 1765 1511.75 1992.5 1511.75 1992.5 1544.25 1765 1544.25 1765 1560.5Z" stroke="#507E32" stroke-width="4.58333" stroke-miterlimit="8" fill="#70AD47" fill-rule="evenodd"/><text font-family="Microsoft YaHei,Microsoft YaHei_MSFontService,sans-serif" font-weight="400" font-size="83" transform="matrix(1 0 0 1 1701.93 1389)">网络消息<tspan font-family="Arial,Arial_MSFontService,sans-serif" font-weight="700" font-size="83" x="-74.2244" y="-831">RPC</tspan><tspan font-weight="700" font-size="83" x="99.9424" y="-831">基础架</tspan><tspan font-weight="700" font-size="83" x="95.359" y="-732">构</tspan></text></g></svg>